#Comment line ignore any data following # character
#Hierarchical Translation and Rotation (.htr) file
[Header]		#Header keywords are followed by a single value
FileType htr		#Single word string
DataType HTRS		#Translation followed by rotation and scale data
FileVersion 1		#integer
NumSegments 15		#integer
NumFrames 10		#integer
DataFrameRate 60		#integer, data frame rate in this file
EulerRotationOrder ZYX
CalibrationUnits mm
RotationUnits Degrees
GlobalAxisofGravity Y
BoneLengthAxis Y
ScaleFactor 1.000000
[SegmentNames&Hierarchy]
#CHILD	PARENT
1cou	1buste
1buste	1bassin
1brasG	1buste
1brasD	1buste
1avbrasG	1brasG
1avbrasD	1brasD
1mainG	1avbrasG
1mainD	1avbrasD
1bassin	GLOBAL
1cuisseG	1bassin
1cuisseD	1bassin
1moletG	1cuisseG
1moletD	1cuisseD
1piedG	1moletG
1piedD	1moletD
[BasePosition]
#SegmentName Tx, Ty, Tz, Rx, Ry, Rz, BoneLength
1cou	0.000002	394.639771	0.000003	47.447697	-6.500580	2.097482	232.574402
1buste	0.331046	98.159424	9.920088	5.813737	-6.959647	-0.900074	394.639771
1brasG	222.293304	333.760773	-3.143221	-5.521868	-4.449825	-174.025208	338.016541
1brasD	-186.675308	347.235016	-30.968008	-5.508482	16.777920	169.824814	318.101379
1avbrasG	0.000004	338.016571	-0.000002	34.403133	17.432653	23.106703	253.821075
1avbrasD	-0.000007	318.101410	-0.000013	32.381824	-10.529597	-11.344105	276.946075
1mainG	0.000006	253.821091	-0.000001	-3.773718	-0.485368	-1.748444	73.639816
1mainD	-0.000031	276.946106	-0.000010	-3.909555	0.199285	0.225476	80.942635
1bassin	396.031860	1037.839600	833.112305	178.297836	19.764000	-179.799622	97.859962
1cuisseG	108.625954	-0.934603	-40.474510	172.403458	-4.353497	-0.165467	517.714233
1cuisseD	-106.972656	-1.326527	-48.733826	172.076172	-12.757409	2.045154	501.698334
1moletG	0.000006	517.714233	-0.000009	157.872192	5.331374	176.676331	488.075745
1moletD	-0.000005	501.698303	0.000003	156.316269	3.295414	-177.725830	511.880615
1piedG	0.000002	488.075745	-0.000006	99.880898	-0.000004	0.000000	242.425140
1piedD	-0.000009	511.880646	-0.000013	102.622849	0.000000	0.000000	237.138092
#Beginning of Data. Separated by tabs
[1cou]
#Fr	Tx	Ty	Tz	Rx	Ry	Rz	SF
124	-0.000008	-45.159271	-0.000004	-3.353528	-20.776941	13.758690	0.971818
125	0.000004	-45.079803	-0.000011	-3.497519	-20.486668	13.769946	0.973206
126	-0.000005	-44.858246	-0.000002	-3.449065	-20.152357	13.588993	0.973673
127	-0.000002	-44.323181	-0.000016	-3.521752	-20.174969	13.755340	0.970196
128	-0.000005	-44.038849	0.000007	-3.608966	-20.412575	13.940223	0.968686
129	0.000002	-43.983063	-0.000027	-3.713748	-20.348478	13.879889	0.970533
130	-0.000004	-44.012115	0.000014	-2.795892	-19.124310	10.816938	0.961444
131	-0.000003	-43.950012	-0.000006	-3.388282	-19.454920	12.176088	0.965797
132	-0.000005	-43.835083	0.000013	-3.839615	-19.618504	12.942202	0.968677
133	0.000001	-43.719574	-0.000006	-3.960312	-19.407251	12.554537	0.968620
[1buste]
#Fr	Tx	Ty	Tz	Rx	Ry	Rz	SF
124	0.509067	-11.558914	1.620250	1.764543	-2.989416	-0.670606	0.885568
125	0.544676	-11.541534	1.637922	1.772223	-3.350014	-0.706434	0.885770
126	0.618274	-11.469040	1.506916	1.675518	-3.342022	-0.736872	0.886331
127	0.577026	-11.309578	1.322206	1.546109	-3.215138	-0.681828	0.887687
128	0.615377	-11.231384	1.268168	1.501509	-3.053310	-0.694389	0.888407
129	0.672327	-11.209427	1.202070	1.452467	-3.000529	-0.721826	0.888549
130	0.775632	-11.225945	1.263902	1.485567	-3.124141	-0.798943	0.888475
131	0.837793	-11.189278	1.092710	1.367374	-3.198740	-0.820519	0.888633
132	0.785308	-11.139038	0.929078	1.262184	-3.307544	-0.769239	0.888924
133	0.727392	-11.088013	0.757718	1.152753	-3.620043	-0.717316	0.889217
[1brasG]
#Fr	Tx	Ty	Tz	Rx	Ry	Rz	SF
124	-54.816223	-22.661530	32.070229	73.585999	28.018244	64.295380	0.903295
125	-54.920776	-22.856201	31.131664	73.534721	27.993896	64.369049	0.903468
126	-55.104050	-23.008728	30.530008	73.584251	28.000204	64.531097	0.903128
127	-55.312012	-22.984680	30.801704	73.844002	28.052193	64.756516	0.903289
128	-55.438751	-22.746826	31.307930	74.225853	28.104568	65.016655	0.903754
129	-55.604614	-22.593781	31.616468	74.485481	28.183800	65.142097	0.904714
130	-55.552994	-22.612091	31.693520	74.820641	28.277512	65.275223	0.906170
131	-55.524094	-22.739929	31.577541	75.037331	28.291437	65.423813	0.907335
132	-55.403702	-22.932007	31.636847	75.185989	28.265118	65.520996	0.907743
133	-55.417236	-22.941528	31.233730	75.223289	28.202465	65.596977	0.909254
[1brasD]
#Fr	Tx	Ty	Tz	Rx	Ry	Rz	SF
124	2.384003	-82.116425	-18.388590	-3.718975	-32.823765	18.019428	0.885040
125	1.888474	-81.582520	-18.022249	-3.683729	-33.053993	17.773497	0.885729
126	1.462128	-81.030701	-17.578840	-3.770748	-33.131279	17.636580	0.886530
127	1.327332	-80.415192	-17.609056	-3.787955	-32.791977	17.510353	0.886822
128	1.245636	-80.092712	-17.427568	-3.838077	-32.289135	17.392050	0.886608
129	1.112869	-79.878967	-17.314486	-3.821002	-31.918446	17.194925	0.886653
130	1.043716	-79.666046	-17.342051	-3.805788	-31.732883	16.929693	0.887363
131	0.855743	-79.205414	-17.137541	-3.804729	-31.804806	16.705679	0.888850
132	0.830444	-78.715027	-16.407820	-3.801808	-31.951817	16.432524	0.889482
133	0.617477	-78.339447	-16.049635	-3.563534	-32.156906	16.053303	0.889112
[1avbrasG]
#Fr	Tx	Ty	Tz	Rx	Ry	Rz	SF
124	-0.000004	-32.687897	-0.000006	37.386360	-10.787971	21.979784	1.151913
125	0.000027	-32.629395	-0.000011	37.502071	-10.651937	22.561024	1.151678
126	0.000006	-32.744263	-0.000000	37.585991	-10.516760	23.065611	1.151292
127	-0.000019	-32.689972	0.000011	37.637276	-10.320149	23.687548	1.150730
128	0.000007	-32.532623	0.000002	37.662056	-10.057006	24.388063	1.149895
129	-0.000022	-32.208099	0.000017	37.698154	-9.770062	25.137329	1.149560
130	0.000011	-31.716125	-0.000011	37.643253	-9.413750	25.904202	1.148035
131	-0.000003	-31.322449	-0.000002	37.617489	-9.115514	26.536140	1.146229
132	-0.000026	-31.184326	0.000018	37.590572	-8.748020	27.274342	1.145231
133	-0.000030	-30.673645	-0.000003	37.561443	-8.434643	27.930576	1.144381
[1avbrasD]
#Fr	Tx	Ty	Tz	Rx	Ry	Rz	SF
124	0.000003	-36.568878	0.000030	81.111534	-16.146814	-108.031456	0.877617
125	0.000013	-36.349762	0.000032	80.826263	-16.019266	-107.582542	0.877914
126	0.000009	-36.095123	0.000002	80.477867	-15.850277	-107.193748	0.877612
127	0.000009	-36.002106	0.000031	79.975861	-15.529362	-106.677376	0.874304
128	0.000010	-36.070038	-0.000001	79.335915	-14.969791	-106.060310	0.869538
129	0.000005	-36.055725	0.000052	78.706772	-14.451781	-105.447311	0.864518
130	0.000002	-35.830078	0.000003	78.118027	-14.020735	-104.844078	0.861495
131	0.000009	-35.357147	0.000026	77.620911	-13.750759	-104.167114	0.861337
132	0.000005	-35.156036	0.000008	77.185776	-13.511916	-103.453026	0.861989
133	0.000010	-35.273804	0.000030	76.824455	-13.451106	-102.612724	0.861374
[1mainG]
#Fr	Tx	Ty	Tz	Rx	Ry	Rz	SF
124	-0.000003	38.558701	0.000005	2.333640	0.367162	1.798990	1.115069
125	-0.000002	38.499069	0.000023	2.349984	0.366085	1.813103	1.114701
126	-0.000030	38.401108	-0.000003	2.361636	0.365348	1.823757	1.114212
127	-0.000001	38.258377	-0.000021	2.372587	0.364590	1.835704	1.113547
128	-0.000012	38.046494	-0.000019	2.382375	0.363958	1.847080	1.112607
129	0.000001	37.961563	-0.000012	2.394254	0.363282	1.859377	1.112175
130	-0.000020	37.574326	0.000025	2.399266	0.362889	1.869723	1.110552
131	-0.000004	37.115860	0.000015	2.403877	0.362748	1.878498	1.108639
132	-0.000006	36.862564	-0.000010	2.409353	0.362688	1.886879	1.107564
133	-0.000021	36.646774	-0.000004	2.411864	0.362757	1.893828	1.106663
[1mainD]
#Fr	Tx	Ty	Tz	Rx	Ry	Rz	SF
124	0.000015	-33.893555	0.000019	2.804711	-0.120218	-0.590071	0.828807
125	0.000017	-33.811340	0.000012	2.794111	-0.129240	-0.605658	0.829168
126	0.000015	-33.894897	0.000019	2.776036	-0.138076	-0.623708	0.828943
127	0.000035	-34.811035	0.000018	2.746011	-0.154114	-0.655866	0.825678
128	0.000040	-36.131027	0.000013	2.706630	-0.183630	-0.710836	0.820979
129	0.000020	-37.521118	0.000015	2.666564	-0.209434	-0.763292	0.816027
130	0.000038	-38.358337	0.000019	2.631078	-0.230608	-0.809048	0.813117
131	0.000006	-38.402191	0.000004	2.609027	-0.244523	-0.839186	0.813095
132	0.000043	-38.221786	-0.000012	2.595517	-0.257255	-0.863750	0.813869
133	0.000034	-38.391968	0.000012	2.588570	-0.262277	-0.874496	0.813283
[1bassin]
#Fr	Tx	Ty	Tz	Rx	Ry	Rz	SF
124	-935.346497	-846.804443	-104.859497	-111.787659	-5.795507	97.626831	0.913703
125	-933.516418	-845.948669	-105.133911	-111.716850	-6.057373	97.740990	0.915328
126	-931.460815	-845.414673	-105.460876	-111.604942	-6.303625	98.154060	0.915574
127	-929.398254	-844.803589	-106.153931	-111.413994	-6.658438	98.514267	0.916036
128	-927.505188	-844.089233	-106.994324	-111.247040	-6.986206	98.856750	0.915806
129	-925.460449	-843.334656	-107.674072	-111.077866	-7.325097	99.192009	0.916266
130	-923.167603	-842.442322	-108.082397	-110.987839	-7.658612	99.413017	0.917602
131	-920.930359	-841.670715	-108.701721	-110.784309	-8.012679	99.879799	0.916894
132	-918.937927	-840.661743	-109.776672	-110.549255	-8.416612	100.380981	0.916437
133	-916.793945	-839.257751	-110.842468	-110.309563	-8.842971	100.812416	0.918042
[1cuisseG]
#Fr	Tx	Ty	Tz	Rx	Ry	Rz	SF
124	-7.857132	-0.430405	-9.498459	-15.580067	-15.696900	-18.028147	1.006912
125	-7.634750	-0.419564	-9.503147	-15.734921	-15.706366	-17.294758	1.008662
126	-7.561157	-0.384630	-9.633598	-15.828518	-15.550668	-16.827023	1.010430
127	-7.521011	-0.374092	-9.758022	-16.102478	-15.449082	-16.342197	1.011628
128	-7.587425	-0.364736	-10.016125	-16.313269	-15.590498	-15.774678	1.012620
129	-7.541229	-0.341797	-10.118313	-16.506021	-15.678925	-15.095689	1.014210
130	-7.331482	-0.313935	-9.965256	-16.583361	-15.455377	-14.491358	1.015234
131	-7.456284	-0.278512	-10.102528	-16.755928	-15.656444	-13.983905	1.016775
132	-7.566452	-0.280641	-10.406075	-16.982674	-15.922029	-13.495376	1.017538
133	-7.342720	-0.273283	-10.528946	-17.195498	-15.811938	-13.008565	1.017985
[1cuisseD]
#Fr	Tx	Ty	Tz	Rx	Ry	Rz	SF
124	3.593575	-0.096162	11.820690	-43.449436	-16.485142	-13.619931	1.106900
125	3.405174	-0.111075	11.646935	-43.447613	-16.391029	-13.463937	1.106593
126	3.341431	-0.124435	11.468349	-43.469299	-16.487082	-13.563389	1.106645
127	3.281013	-0.094159	11.444538	-43.623085	-16.574860	-13.637081	1.106239
128	3.240799	-0.091850	11.720036	-43.810425	-16.671003	-13.651120	1.105547
129	3.159592	-0.098626	11.793621	-44.041714	-16.732780	-13.634754	1.103972
130	3.048073	-0.142630	11.457699	-44.247089	-16.708239	-13.500741	1.101880
131	3.096909	-0.136917	11.701141	-44.517952	-16.898062	-13.513652	1.099851
132	3.065742	-0.094106	12.102932	-44.868408	-17.148798	-13.501822	1.098084
133	2.846138	-0.062222	11.958427	-45.247532	-17.291489	-13.538267	1.096522
[1moletG]
#Fr	Tx	Ty	Tz	Rx	Ry	Rz	SF
124	0.000002	3.578430	0.000004	-15.201833	-18.180872	3.575751	0.970810
125	-0.000018	4.484680	0.000020	-14.997616	-18.375578	3.279359	0.969763
126	-0.000001	5.399597	0.000008	-14.984560	-18.611828	3.055272	0.968965
127	-0.000012	6.019775	0.000034	-15.020378	-18.817238	2.824859	0.970818
128	-0.000024	6.533752	-0.000007	-14.934233	-18.278461	2.576254	0.969725
129	0.000008	7.356750	-0.000009	-14.719062	-18.044476	2.523492	0.969384
130	-0.000012	7.886963	0.000001	-14.573167	-18.106918	2.325882	0.969150
131	-0.000008	8.684692	0.000011	-14.525499	-17.617748	2.225191	0.968817
132	-0.000011	9.079529	0.000058	-14.315903	-17.623093	2.174787	0.970701
133	0.000008	9.311035	0.000026	-14.213603	-17.764612	2.096659	0.970546
[1moletD]
#Fr	Tx	Ty	Tz	Rx	Ry	Rz	SF
124	-0.000001	53.631470	-0.000017	-71.378784	0.990288	0.528723	0.882521
125	0.000010	53.477661	0.000003	-70.832001	0.846347	0.362932	0.882775
126	0.000003	53.503601	-0.000035	-70.477539	0.527379	0.036913	0.882851
127	-0.000007	53.299744	0.000026	-70.281921	0.225791	-0.209116	0.882279
128	-0.000006	52.952759	-0.000012	-70.271339	-0.202511	-0.221121	0.881208
129	0.000014	52.162659	-0.000038	-70.329079	-0.700640	-0.087791	0.879756
130	-0.000004	51.113220	0.000028	-70.446594	-1.161436	-0.103873	0.878379
131	0.000002	50.095032	0.000003	-70.587555	-1.635516	-0.354666	0.876734
132	0.000011	49.208618	0.000012	-70.849129	-2.352281	0.380414	0.874896
133	0.000018	48.425110	-0.000009	-71.257278	-3.451493	2.335268	0.873176
[1piedG]
#Fr	Tx	Ty	Tz	Rx	Ry	Rz	SF
124	0.000008	-14.247131	0.000020	7.702976	-0.000001	-0.000002	1.032761
125	0.000012	-14.758087	0.000009	7.449496	-0.000002	-0.000001	1.034387
126	-0.000043	-15.147308	-0.000042	7.369283	-0.000003	-0.000003	1.030048
127	0.000005	-14.242950	0.000059	7.382406	-0.000002	-0.000002	1.029940
128	0.000016	-14.776459	0.000062	7.167991	-0.000000	-0.000003	1.030668
129	-0.000013	-14.943085	0.000037	6.960648	-0.000001	-0.000000	1.029064
130	-0.000018	-15.057190	0.000034	6.545388	-0.000002	-0.000006	1.027957
131	0.000019	-15.219666	0.000013	6.275519	-0.000001	-0.000005	1.027766
132	0.000008	-14.299988	0.000010	6.387293	-0.000001	-0.000005	1.022185
133	0.000001	-14.375641	-0.000005	6.201559	0.000001	-0.000003	1.022982
[1piedD]
#Fr	Tx	Ty	Tz	Rx	Ry	Rz	SF
124	0.000010	-60.135376	0.000011	8.564033	-0.000000	0.000000	1.058590
125	-0.000012	-60.005280	0.000002	8.527076	0.000000	0.000001	1.059317
126	0.000033	-59.966339	0.000032	8.519745	0.000000	0.000002	1.060684
127	0.000015	-60.259216	0.000028	8.391582	0.000000	0.000000	1.061733
128	0.000013	-60.807556	0.000011	8.275152	-0.000000	-0.000001	1.059393
129	0.000018	-61.550629	0.000006	8.015577	-0.000000	-0.000001	1.058401
130	0.000016	-62.255310	-0.000017	7.547073	0.000000	0.000000	1.053329
131	0.000020	-63.097229	0.000036	7.301017	-0.000000	-0.000001	1.049548
132	0.000015	-64.038208	0.000009	7.224446	0.000000	0.000000	1.049140
133	0.000009	-64.919006	0.000016	7.272738	-0.000000	-0.000000	1.048243
[EndOfFile]
